<svg xmlns="http://www.w3.org/2000/svg" xmlns:xlink="http://www.w3.org/1999/xlink" width="60" height="60"><defs><symbol id="icon-facebook-filled" viewBox="0 0 50 50"><path d="M40 0H10C4.486 0 0 4.486 0 10v30c0 5.514 4.486 10 10 10h30c5.514 0 10-4.486 10-10V10c0-5.514-4.486-10-10-10zm-1 17h-3c-2.145 0-3 .504-3 2v3h6l-1 6h-5v20h-7V28h-3v-6h3v-3c0-4.677 1.58-8 7-8 2.902 0 6 1 6 1v5z"/></symbol><symbol id="icon-instagram-filled" viewBox="0 0 50 50"><path d="M15 2C7.832 2 2 7.832 2 15v20c0 7.168 5.832 13 13 13h20c7.168 0 13-5.832 13-13V15c0-7.168-5.832-13-13-13H15zm23 8c1.105 0 2 .895 2 2s-.895 2-2 2-2-.895-2-2 .895-2 2-2zm-13 3c6.617 0 12 5.383 12 12s-5.383 12-12 12-12-5.383-12-12 5.383-12 12-12zm0 2c-5.514 0-10 4.486-10 10s4.486 10 10 10 10-4.486 10-10-4.486-10-10-10z"/></symbol><symbol id="icon-vk-com-filled" viewBox="0 0 50 50"><path d="M39.593 0H10.407C4.667 0 0 4.667 0 10.404v29.192C0 45.333 4.668 50 10.407 50h29.185C45.332 50 50 45.333 50 39.596V10.404C50 4.667 45.33 0 39.593 0zm.873 34.92l-4.542.063s-.98.188-2.262-.676c-1.7-1.14-3.3-4.104-4.55-3.72-1.048.32-1.27 1.53-1.27 2.77 0 .444-.318.644-1.162.644h-2.033c-2.744 0-5.466-.124-8.437-3.302-4.202-4.494-8.113-12.88-8.113-12.88s-.218-.455.02-.732c.268-.31.998-.272.998-.272l4.86-.002s.456.09.785.325c.27.194.422.565.422.565s.786 1.95 1.826 3.71c2.03 3.434 2.975 4.187 3.664 3.818 1.006-.536.704-4.854.704-4.854s.02-1.568-.506-2.266c-.405-.54-1.17-.7-1.508-.743-.274-.036.174-.657.756-.937.875-.42 2.42-.442 4.245-.424 1.42.014 1.83.1 2.386.232 1.675.396 1.105 1.926 1.105 5.595 0 1.175-.217 2.828.65 3.376.372.235 1.283.034 3.56-3.752 1.08-1.795 1.89-3.905 1.89-3.905s.177-.328.452-.49c.282-.164.272-.16.66-.16.387 0 4.264-.032 5.114-.032s1.648-.01 1.786.5c.197.734-.574 2.378-2.664 5.105-3.432 4.476-3.813 4.058-.965 6.646 2.72 2.474 3.285 3.677 3.377 3.827 1.13 1.83-1.248 1.974-1.248 1.974z"/></symbol></defs><g><use xlink:href="#icon-facebook-filled" width="24" height="24" x="3" y="3"/><use xlink:href="#icon-instagram-filled" width="24" height="24" x="33" y="3"/><use xlink:href="#icon-vk-com-filled" width="24" height="24" x="3" y="33"/></g></svg>
